#!OML:ASF X:\für Bonn\!DataBase\2005_08_10_Bjorn_Final\c3d\bjorn.ASF
:FULLY-SPECIFIED
:DEGREES
450
root 0.437927 18.9796 12.0488 -182.534 -6.19778 179.313
lowerback 1.96714 2.89495 -5.70832
upperback 12.3002 2.74957 -3.58261
thorax 12.0207 0.250197 -0.654465
lowerneck 2.90149 -5.81539 2.95527
upperneck 11.695 -8.65853 1.25639
head 3.19111 -4.39141 -0.2658
rclavicle -6.20208e-014 5.40694e-014
rhumerus -378.218 -18.633 270.982
rradius 27.9135
rwrist 14.3265
rhand -8.26485 10.5752
rfingers 7.12502
rthumb 17.654 -18.6433
lclavicle -6.20208e-014 5.40694e-014
lhumerus -4.59283 -16.4196 89.3762
lradius 30.5107
lwrist 17.0119
lhand -15.2578 -3.24471
lfingers 7.12502
lthumb 10.9161 26.4515
rfemur -19.5574 -6.08434 12.1238
rtibia 38.05
rfoot -12.461 11.1316
rtoes -3.62064
lfemur -6.36404 7.42208 -19.4631
ltibia 31.4329
lfoot -17.1103 -10.8496
ltoes -4.7969
451
root 0.429898 18.9782 12.0625 -182.631 -6.18207 179.381
lowerback 2.0155 2.88251 -5.84905
upperback 12.307 2.72638 -3.6198
thorax 11.9964 0.222406 -0.621396
lowerneck 2.94854 -6.05741 2.81125
upperneck 11.1224 -8.92542 1.48565
head 3.00162 -4.5133 -0.15667
rclavicle 0 -1.74931e-014
rhumerus -378.513 -20.1582 271.149
rradius 26.8603
rwrist 15.2915
rhand -7.63287 9.89801
rfingers 7.12502
rthumb 18.2621 -19.2647
lclavicle 0 -1.74931e-014
lhumerus -4.84241 -14.2581 89.6127
lradius 28.6399
lwrist 15.4387
lhand -15.4693 -3.03763
lfingers 7.12502
lthumb 10.7121 26.6693
rfemur -19.2936 -5.80126 12.2883
rtibia 38.4867
rfoot -12.4911 11.0819
rtoes -3.90884
lfemur -6.34925 7.33111 -19.4367
ltibia 31.5075
lfoot -17.0544 -10.6973
ltoes -4.65015
452
root 0.422391 18.9775 12.0739 -182.737 -6.16478 179.467
lowerback 2.03478 2.87329 -5.9628
upperback 12.3426 2.70545 -3.65322
thorax 12.025 0.194813 -0.599874
lowerneck 2.95547 -6.2855 2.67788
upperneck 10.5228 -9.17307 1.7431
head 2.8144 -4.62431 -0.04168
rclavicle -7.95139e-015 -1.90833e-014
rhumerus -378.812 -21.8381 271.378
rradius 25.8265
rwrist 16.5666
rhand -7.13241 9.49036
rfingers 7.12502
rthumb 18.7435 -19.6266
lclavicle -7.95139e-015 -1.90833e-014
lhumerus -5.03139 -12.0466 89.7129
lradius 26.7416
lwrist 13.3134
lhand -15.7456 -2.97255
lfingers 7.12502
lthumb 10.4456 26.748
rfemur -19.0155 -5.51043 12.4822
rtibia 38.9271
rfoot -12.5946 10.9721
rtoes -4.2701
lfemur -6.32137 7.27674 -19.3796
ltibia 31.5877
lfoot -17.0078 -10.5678
ltoes -4.61189
453
root 0.414963 18.9758 12.0852 -182.84 -6.15673 179.521
lowerback 2.08854 2.85158 -6.10673
upperback 12.3578 2.66696 -3.69793
thorax 12.0085 0.158221 -0.575074
lowerneck 2.99406 -6.50189 2.48239
upperneck 9.93904 -9.41366 2.04992
head 2.63586 -4.73531 0.098714
rclavicle -7.15625e-015 1.27222e-014
rhumerus -379.199 -23.4242 271.666
rradius 24.8367
rwrist 17.815
rhand -6.72855 9.26836
rfingers 7.12502
rthumb 19.1319 -19.8106
lclavicle -7.15625e-015 1.27222e-014
lhumerus -5.24468 -9.59037 89.7372
lradius 24.7869
lwrist 10.4453
lhand -16.1847 -3.14709
lfingers 7.12502
lthumb 10.0219 26.5943
rfemur -18.7416 -5.2684 12.6433
rtibia 39.36
rfoot -12.6973 10.8752
rtoes -4.72492
lfemur -6.29492 7.19074 -19.3625
ltibia 31.6706
lfoot -16.948 -10.4299
ltoes -4.49208
454
root 0.408313 18.9744 12.0929 -182.929 -6.18347 179.585
lowerback 2.08086 2.81931 -6.24328
upperback 12.393 2.6198 -3.73013
thorax 12.0537 0.115679 -0.541286
lowerneck 2.99403 -6.70082 2.29428
upperneck 9.34999 -9.63153 2.36893
head 2.46593 -4.83486 0.239652
rclavicle 7.15625e-015 -4.92986e-014
rhumerus -379.61 -25.0326 272.014
rradius 23.8893
rwrist 19.1623
rhand -6.3478 9.15012
rfingers 7.12502
rthumb 19.498 -19.8922
lclavicle 7.15625e-015 -4.92986e-014
lhumerus -5.43146 -6.97492 89.6632
lradius 22.8464
lwrist 7.01213
lhand -16.7111 -3.50456
lfingers 7.12502
lthumb 9.51406 26.2607
rfemur -18.4687 -5.05666 12.8213
rtibia 39.7886
rfoot -12.8887 10.746
rtoes -5.21601
lfemur -6.27384 7.10062 -19.3273
ltibia 31.754
lfoot -16.9108 -10.3113
ltoes -4.36541
455
root 0.402048 18.972 12.0975 -183.023 -6.22729 179.636
lowerback 2.05991 2.78691 -6.37729
upperback 12.4356 2.57312 -3.78068
thorax 12.1172 0.0732005 -0.529386
lowerneck 3.06588 -6.89082 2.13486
upperneck 8.6688 -9.83221 2.73977
head 2.25751 -4.92728 0.396497
rclavicle 1.74931e-014 3.65764e-014
rhumerus -380.093 -26.6673 272.414
rradius 23.0021
rwrist 20.5426
rhand -6.02971 9.16554
rfingers 7.12502
rthumb 19.8038 -19.8456
lclavicle 1.74931e-014 3.65764e-014
lhumerus -5.57385 -3.97926 89.4732
lradius 20.849
lwrist 2.82368
lhand -17.2558 -4.01789
lfingers 7.12502
lthumb 8.98854 25.7706
rfemur -18.1741 -4.87448 12.9838
rtibia 40.2027
rfoot -13.105 10.5833
rtoes -5.57087
lfemur -6.23262 6.97852 -19.3088
ltibia 31.8422
lfoot -16.8763 -10.2073
ltoes -4.15574
456
root 0.395895 18.9702 12.1009 -183.094 -6.28961 179.684
lowerback 2.00481 2.74254 -6.50515
upperback 12.4849 2.51446 -3.82301
thorax 12.2104 0.0246863 -0.51282
lowerneck 3.08796 -7.07566 1.93837
upperneck 8.02944 -10.0325 3.12216
head 2.07777 -5.0212 0.558881
rclavicle -6.36111e-015 -2.54444e-014
rhumerus -380.604 -28.1461 272.844
rradius 22.2059
rwrist 21.8022
rhand -5.80691 9.15654
rfingers 7.12502
rthumb 20.018 -19.8323
lclavicle -6.36111e-015 -2.54444e-014
lhumerus -5.69039 -0.567987 89.1901
lradius 18.8454
lwrist -1.98058
lhand -17.7976 -4.55946
lfingers 7.12502
lthumb 8.4657 25.2509
rfemur -17.9115 -4.72841 13.1511
rtibia 40.6045
rfoot -13.3724 10.3641
rtoes -6.10918
lfemur -6.22219 6.8554 -19.2993
ltibia 31.9366
lfoot -16.8736 -10.0576
ltoes -4.26773
457
root 0.38972 18.9678 12.1056 -183.151 -6.30739 179.739
lowerback 1.95673 2.72037 -6.61081
upperback 12.5266 2.48565 -3.83928
thorax 12.2884 -0.00683841 -0.477274
lowerneck 3.15902 -7.26807 1.64944
upperneck 7.3435 -10.243 3.55825
head 1.88627 -5.12437 0.754747
rclavicle 1.51076e-014 2.70347e-014
rhumerus -381.18 -29.5041 273.377
rradius 21.4981
rwrist 22.9325
rhand -5.65937 9.17422
rfingers 7.12502
rthumb 20.1598 -19.7997
lclavicle 1.51076e-014 2.70347e-014
lhumerus -5.78949 3.46943 88.8545
lradius 16.8111
lwrist -7.73098
lhand -18.422 -4.87926
lfingers 7.12502
lthumb 7.86305 24.9545
rfemur -17.6893 -4.55231 13.332
rtibia 40.9859
rfoot -13.6323 10.0935
rtoes -6.54173
lfemur -6.23145 6.72523 -19.2882
ltibia 32.0371
lfoot -16.8866 -9.88295
ltoes -4.33544
